<svg xmlns="http://www.w3.org/2000/svg" viewBox="0 0 24 24" fill="#4ECDC4" width="18" height="18">
  <path d="M9.5 4c.28 0 .5.22.5.5v7.88l5.24-5.24c.2-.2.51-.2.71 0l1.41 1.41c.2.2.2.51 0 .71L11.3 15.4c-.2.2-.51.2-.71 0l-5.56-5.56c-.2-.2-.2-.51 0-.71l1.41-1.41c.2-.2.51-.2.71 0L9 9.16V4.5c0-.28.22-.5.5-.5zm5 16c2.49 0 4.56-1.33 5.5-3.24.27-.53-.08-1.16-.68-1.16-.28 0-.55.14-.68.38C18.03 17.46 16.46 18.5 14.5 18.5c-1.96 0-3.53-1.04-4.14-2.52-.13-.24-.4-.38-.68-.38-.6 0-.95.63-.68 1.16.94 1.91 3.01 3.24 5.5 3.24z"/>
</svg>